<?xml version="1.0" standalone="no"?>
<!DOCTYPE svg PUBLIC "-//W3C//DTD SVG 20010904//EN"
 "http://www.w3.org/TR/2001/REC-SVG-20010904/DTD/svg10.dtd">
<svg version="1.0" xmlns="http://www.w3.org/2000/svg"
 width="1365.000000pt" height="1365.000000pt" viewBox="0 0 1365.000000 1365.000000"
 preserveAspectRatio="xMidYMid meet">
<metadata>
Created by potrace 1.14, written by Peter Selinger 2001-2017
</metadata>
<g transform="translate(0.000000,1365.000000) scale(0.100000,-0.100000)"
fill="#000000" stroke="none">
<path d="M6567 13644 c-1 -1 -61 -5 -132 -9 -72 -3 -141 -8 -155 -10 -14 -1
-66 -6 -114 -10 -49 -4 -96 -8 -105 -10 -9 -1 -43 -6 -76 -9 -33 -4 -71 -9
-85 -11 -14 -2 -43 -7 -65 -10 -82 -12 -140 -21 -200 -31 -194 -33 -560 -119
-755 -179 -47 -15 -92 -28 -100 -30 -8 -2 -62 -20 -120 -40 -58 -20 -112 -38
-120 -40 -56 -14 -412 -160 -564 -230 -100 -46 -378 -184 -391 -195 -5 -4 -46
-27 -90 -50 -44 -24 -115 -65 -158 -92 -43 -26 -81 -48 -83 -48 -4 0 -137 -86
-159 -103 -5 -4 -55 -37 -110 -74 -148 -99 -496 -361 -535 -403 -3 -3 -36 -32
-75 -64 -38 -33 -75 -64 -80 -70 -6 -6 -35 -33 -65 -60 -140 -126 -386 -374
-505 -510 -33 -38 -65 -74 -71 -80 -8 -9 -161 -195 -219 -268 -185 -230 -424
-597 -614 -941 -78 -142 -218 -431 -209 -432 2 -1 -5 -13 -14 -27 -10 -15 -34
-65 -53 -113 -20 -47 -41 -98 -47 -113 -6 -15 -12 -29 -13 -32 0 -3 -15 -41
-32 -86 -53 -136 -112 -311 -182 -539 -48 -157 -126 -496 -166 -720 -2 -16 -7
-39 -9 -50 -2 -11 -9 -56 -16 -100 -6 -44 -13 -91 -15 -105 -2 -14 -7 -52 -10
-85 -4 -33 -8 -67 -10 -75 -2 -8 -7 -55 -11 -105 -3 -49 -8 -101 -9 -115 -24
-193 -24 -949 0 -1101 2 -13 6 -62 10 -109 3 -47 8 -94 10 -105 2 -11 7 -44
10 -74 8 -74 23 -180 41 -286 17 -100 16 -97 39 -215 9 -47 19 -96 22 -109 2
-14 6 -28 8 -31 2 -4 7 -22 10 -41 3 -19 8 -42 11 -51 3 -9 6 -25 8 -35 2 -10
12 -47 21 -83 9 -36 18 -72 20 -80 30 -136 187 -605 262 -780 8 -19 19 -44 23
-55 34 -88 159 -359 226 -490 69 -134 112 -213 238 -430 110 -188 361 -546
530 -755 239 -295 526 -594 801 -834 50 -44 104 -91 120 -105 17 -15 64 -53
105 -86 41 -33 81 -66 90 -72 164 -133 559 -400 760 -516 366 -209 698 -367
1055 -499 101 -37 305 -108 325 -113 8 -2 44 -12 80 -24 131 -41 481 -131 565
-144 17 -3 80 -15 140 -26 61 -12 133 -25 160 -31 28 -5 75 -12 105 -15 30 -3
62 -8 70 -10 8 -2 42 -7 75 -11 33 -3 71 -8 85 -10 14 -2 57 -6 96 -9 40 -3
81 -7 91 -10 59 -11 344 -20 613 -19 352 1 467 7 755 39 102 11 141 16 165 20
14 3 48 7 75 10 28 4 57 8 65 10 8 2 31 7 50 10 31 5 177 32 265 50 17 3 43 8
59 11 221 41 716 190 1016 307 244 95 720 316 728 338 2 5 9 9 16 9 14 0 208
109 350 197 470 290 870 607 1256 994 265 266 421 446 650 749 349 464 640
988 885 1595 7 17 18 46 25 65 6 19 16 44 21 55 34 76 176 537 204 660 2 6 8
30 15 55 12 44 15 60 25 110 3 14 9 40 14 58 5 18 10 35 10 37 0 3 5 29 10 58
18 82 21 99 27 147 3 25 8 48 10 51 4 8 41 250 49 324 3 33 8 71 10 85 3 14 7
57 10 95 3 39 8 86 10 105 19 151 26 792 11 1000 -12 173 -16 223 -21 260 -3
20 -7 59 -10 87 -2 28 -7 64 -9 79 -3 16 -7 50 -10 76 -6 49 -14 106 -22 148
-2 14 -8 52 -14 85 -17 107 -67 343 -104 500 -27 109 -124 436 -167 560 -48
140 -144 392 -159 417 -5 10 -10 25 -10 33 0 8 -4 15 -10 15 -5 0 -10 6 -10
14 0 28 -164 368 -270 561 -102 185 -117 210 -209 358 -416 666 -978 1288
-1591 1762 -35 28 -73 58 -85 67 -52 43 -374 266 -478 330 -563 350 -1125 601
-1734 777 -195 57 -515 132 -663 156 -14 2 -65 11 -115 20 -85 15 -452 62
-485 63 -8 0 -46 3 -85 6 -198 16 -272 19 -528 20 -153 1 -279 1 -280 0z"/>
</g>
</svg>
